<?xml version="1.0" standalone="no"?>
<!DOCTYPE svg PUBLIC "-//W3C//DTD SVG 1.1//EN" "http://www.w3.org/Graphics/SVG/1.1/DTD/svg11.dtd" >
<svg xmlns="http://www.w3.org/2000/svg">
<metadata></metadata>
<defs>
<font id="machinecttboldbold" horiz-adv-x="942" >
<font-face units-per-em="2048" ascent="1638" descent="-410" />
<missing-glyph horiz-adv-x="477" />
<glyph horiz-adv-x="0" />
<glyph unicode="&#xd;" horiz-adv-x="477" />
<glyph unicode=" "  horiz-adv-x="477" />
<glyph unicode="&#x09;" horiz-adv-x="477" />
<glyph unicode="&#xa0;" horiz-adv-x="477" />
<glyph unicode="!" horiz-adv-x="737" d="M184 0v274h369v-274h-369zM184 926v508h369v-508l-107 -537h-155z" />
<glyph unicode="&#x22;" horiz-adv-x="737" d="M61 891v543h246v-543h-246zM430 891v543h246v-543h-246z" />
<glyph unicode="#" horiz-adv-x="1236" d="M102 387v211h199l33 242h-172v211h196l56 383h219l-55 -383h182l55 383h219l-55 -383h156v-211h-181l-32 -242h153v-211h-182l-53 -387h-219l53 387h-182l-54 -387h-219l53 387h-170zM520 598h182l33 242h-182z" />
<glyph unicode="$" horiz-adv-x="901" d="M61 201v264h349v-191h82v293l-205 21l-226 200v445l205 201h103v143h163v-143h78l205 -201v-264h-323v190h-82v-285l204 -20l226 -201v-452l-205 -201h-103v-143h-163v143h-103z" />
<glyph unicode="%" horiz-adv-x="1331" d="M61 848v446l140 140h278l139 -140v-446l-139 -135h-278zM152 51l970 1383l78 -52l-971 -1382zM299 897h82v352h-82v-352zM713 135v447l139 139h278l140 -139v-447l-140 -135h-278zM950 184h82v353h-82v-353z" />
<glyph unicode="&#x26;" horiz-adv-x="1187" d="M61 201v374l205 140l-176 131v387l205 201h352l205 -201v-264l-145 -160l77 -119l31 62h295l-174 -306l276 -446h-393l-74 127l-73 -127h-410zM430 274h111l59 99l-149 256h-21v-355zM430 854h82v305h-82v-305z" />
<glyph unicode="'" horiz-adv-x="450" d="M102 891v543h246v-543h-246z" />
<glyph unicode="(" horiz-adv-x="737" d="M164 225v983l299 271h217v-172h-242v-1180h242v-172h-217z" />
<glyph unicode=")" horiz-adv-x="737" d="M57 -45v172h242v1180h-242v172h217l299 -271v-983l-299 -270h-217z" />
<glyph unicode="*" horiz-adv-x="987" d="M152 1036v107h215l-154 151l74 74l153 -149v215h107v-215l153 149l74 -74l-153 -151h215v-107h-215l153 -153l-74 -74l-153 154v-218h-107v218l-153 -154l-74 74l154 153h-215z" />
<glyph unicode="+" horiz-adv-x="1204" d="M98 594v242h383v383h242v-383h383v-242h-383v-383h-242v383h-383z" />
<glyph unicode="," horiz-adv-x="532" d="M82 0v274h369v-204l-195 -283l-111 82l88 131h-151z" />
<glyph unicode="-" horiz-adv-x="368" d="M8 633v205h352v-205h-352z" />
<glyph unicode="." horiz-adv-x="532" d="M82 0v274h369v-274h-369z" />
<glyph unicode="/" horiz-adv-x="679" d="M-131 109l743 1325l199 -109l-743 -1325z" />
<glyph unicode="0" d="M61 201v1032l205 201h410l205 -201v-1032l-205 -201h-410zM430 274h82v885h-82v-885z" />
<glyph unicode="1" d="M184 1159v197l305 78h207v-1434h-377v1159h-135z" />
<glyph unicode="2" d="M61 0v508l451 405v246h-82v-188h-369v262l205 201h410l205 -201v-406l-451 -430v-123h451v-274h-820z" />
<glyph unicode="3" d="M61 201v266h369v-193h82v316h-147v274h147v295h-82v-180h-356v254l205 201h397l205 -201v-350l-185 -156l185 -156v-370l-205 -201h-410z" />
<glyph unicode="4" d="M-20 549l483 885h328v-897h131v-254h-131v-283h-369v283h-348zM238 537h184v348z" />
<glyph unicode="5" d="M61 201v288h369v-215h82v332l-233 17l-218 200v611h758v-275h-389v-252l250 -16l201 -184v-506l-199 -201h-420z" />
<glyph unicode="6" d="M61 201v1032l205 201h398l204 -201v-258h-356v184h-82v-307h250l201 -184v-467l-205 -201h-410zM430 274h82v304h-82v-304z" />
<glyph unicode="7" d="M61 0l471 1159h-122v-135h-328v410h819v-275l-459 -1159h-381z" />
<glyph unicode="8" d="M61 201v393l168 139l-155 135v365l205 201h385l204 -201v-365l-159 -135l172 -139v-393l-205 -201h-410zM430 274h82v308h-82v-308zM430 856h82v303h-82v-303z" />
<glyph unicode="9" d="M61 766v467l205 201h410l205 -201v-1032l-205 -201h-397l-205 201v258h356v-185h82v308h-250zM430 856h82v303h-82v-303z" />
<glyph unicode=":" horiz-adv-x="532" d="M82 0v274h369v-274h-369zM82 389v275h369v-275h-369z" />
<glyph unicode=";" horiz-adv-x="532" d="M82 0v274h369v-204l-195 -283l-111 82l88 131h-151zM82 389v275h369v-275h-369z" />
<glyph unicode="&#x3c;" horiz-adv-x="1204" d="M92 618v205l1020 447v-230l-741 -319l741 -320v-229z" />
<glyph unicode="=" horiz-adv-x="1204" d="M98 373v241h1008v-241h-1008zM98 819v242h1008v-242h-1008z" />
<glyph unicode="&#x3e;" horiz-adv-x="1204" d="M92 172v229l742 320l-742 319v230l1020 -447v-205z" />
<glyph unicode="?" horiz-adv-x="1064" d="M127 899v334l205 201h401l205 -201v-361l-217 -213v-270h-369v287l217 209v274h-82v-260h-360zM352 0v274h369v-274h-369z" />
<glyph unicode="@" horiz-adv-x="1564" d="M94 281v872l281 281h815l280 -281v-604l-280 -279h-287l-72 70l-69 -70h-125l-141 136v618l141 139h125l69 -69l72 69h166v-741h21l188 209v442l-188 189h-615l-188 -189v-713l188 -188h846v-172h-946zM733 455h98v524h-98v-524z" />
<glyph unicode="A" horiz-adv-x="864" d="M-20 0l196 1434h565l144 -1434h-369l-22 258h-127l-19 -258h-368zM379 532h100l-43 558h-22z" />
<glyph unicode="B" d="M78 0v1434h598l201 -185v-370l-154 -148l174 -139v-391l-217 -201h-602zM446 274h82v316h-82v-316zM446 864h82v295h-82v-295z" />
<glyph unicode="C" d="M61 201v1032l205 201h410l205 -201v-356h-369v282h-82v-885h82v340h369v-413l-205 -201h-410z" />
<glyph unicode="D" horiz-adv-x="958" d="M78 0v1434h614l205 -201v-1032l-205 -201h-614zM446 274h82v885h-82v-885z" />
<glyph unicode="E" horiz-adv-x="737" d="M78 0v1434h627v-275h-259v-266h205v-275h-205v-344h259v-274h-627z" />
<glyph unicode="F" horiz-adv-x="737" d="M78 0v1434h655v-275h-287v-262h224v-274h-224v-623h-368z" />
<glyph unicode="G" d="M61 201v1032l205 201h410l205 -201v-348h-369v274h-82v-885h82v193h-45v274h414v-540l-205 -201h-410z" />
<glyph unicode="H" horiz-adv-x="974" d="M78 0v1434h368v-570h82v570h369v-1434h-369v590h-82v-590h-368z" />
<glyph unicode="I" horiz-adv-x="524" d="M78 0v1434h368v-1434h-368z" />
<glyph unicode="J" horiz-adv-x="839" d="M0 201v364h328v-293h82v1162h368v-1233l-205 -201h-368z" />
<glyph unicode="K" horiz-adv-x="1044" d="M78 0v1434h368v-566l201 566h369l-283 -670l332 -764h-389l-225 588l-5 -588h-368z" />
<glyph unicode="L" horiz-adv-x="716" d="M78 0v1434h368v-1160h271v-274h-639z" />
<glyph unicode="M" horiz-adv-x="1187" d="M78 0v1434h391l115 -652h20l115 652h391v-1434h-344l14 618l-129 -618h-114l-125 618l10 -618h-344z" />
<glyph unicode="N" horiz-adv-x="946" d="M78 0v1434h262l164 -529l4 529h360v-1434h-262l-164 528l-4 -528h-360z" />
<glyph unicode="O" d="M61 201v1032l205 201h410l205 -201v-1032l-205 -201h-410zM430 274h82v885h-82v-885z" />
<glyph unicode="P" d="M78 0v1434h602l217 -201v-545l-217 -201h-234v-487h-368zM446 762h82v397h-82v-397z" />
<glyph unicode="Q" d="M61 201v1032l205 201h410l205 -201v-934l-152 -143h168v-156h-631zM430 274h82v885h-82v-885z" />
<glyph unicode="R" horiz-adv-x="958" d="M78 0v1434h614l205 -201v-385l-152 -135l152 -140v-573h-369v573h-82v-573h-368zM446 848h82v311h-82v-311z" />
<glyph unicode="S" d="M61 201v264h369v-191h82v293l-225 21l-226 200v445l205 201h385l205 -201v-264h-344v190h-82v-285l225 -20l226 -201v-452l-205 -201h-410z" />
<glyph unicode="T" horiz-adv-x="712" d="M0 1161v273h713v-273h-172v-1161h-369v1161h-172z" />
<glyph unicode="U" d="M61 201v1233h369v-1160h82v1160h369v-1233l-205 -201h-410z" />
<glyph unicode="V" horiz-adv-x="860" d="M-20 1434h368l72 -1024h20l72 1024h369l-179 -1434h-544z" />
<glyph unicode="W" horiz-adv-x="1146" d="M-20 1434h348l96 -594l68 594h163l64 -594l100 594h348l-247 -1434h-287l-49 532h-21l-49 -532h-287z" />
<glyph unicode="X" horiz-adv-x="925" d="M-20 0l268 737l-254 697h368l97 -355h8l96 355h369l-254 -697l268 -737h-368l-111 373h-8l-111 -373h-368z" />
<glyph unicode="Y" d="M-20 1434h368l121 -471l125 471h369l-308 -844v-590h-368v590z" />
<glyph unicode="Z" horiz-adv-x="839" d="M-20 274l462 885h-325v275h542l201 -275l-463 -885h363v-274h-580z" />
<glyph unicode="[" horiz-adv-x="696" d="M164 -45v1524h475v-152h-201v-1221h201v-151h-475z" />
<glyph unicode="\" horiz-adv-x="679" d="M-131 1325l199 109l743 -1325l-199 -109z" />
<glyph unicode="]" horiz-adv-x="696" d="M57 -45v151h201v1221h-201v152h475v-1524h-475z" />
<glyph unicode="^" horiz-adv-x="1208" d="M143 705l355 729h213l354 -729h-242l-219 495l-219 -495h-242z" />
<glyph unicode="_" horiz-adv-x="1024" d="M0 -147h1024v-103h-1024v103z" />
<glyph unicode="`" horiz-adv-x="778" d="M66 1769l73 136h107l303 -244l-66 -113l-362 131z" />
<glyph unicode="a" horiz-adv-x="864" d="M-20 0l196 1434h565l144 -1434h-369l-22 258h-127l-19 -258h-368zM379 532h100l-43 558h-22z" />
<glyph unicode="b" d="M78 0v1434h598l201 -185v-370l-154 -148l174 -139v-391l-217 -201h-602zM446 274h82v316h-82v-316zM446 864h82v295h-82v-295z" />
<glyph unicode="c" d="M61 201v1032l205 201h410l205 -201v-356h-369v282h-82v-885h82v340h369v-413l-205 -201h-410z" />
<glyph unicode="d" horiz-adv-x="958" d="M78 0v1434h614l205 -201v-1032l-205 -201h-614zM446 274h82v885h-82v-885z" />
<glyph unicode="e" horiz-adv-x="737" d="M78 0v1434h627v-275h-259v-266h205v-275h-205v-344h259v-274h-627z" />
<glyph unicode="f" horiz-adv-x="737" d="M78 0v1434h655v-275h-287v-262h224v-274h-224v-623h-368z" />
<glyph unicode="g" d="M61 201v1032l205 201h410l205 -201v-348h-369v274h-82v-885h82v193h-45v274h414v-540l-205 -201h-410z" />
<glyph unicode="h" horiz-adv-x="974" d="M78 0v1434h368v-570h82v570h369v-1434h-369v590h-82v-590h-368z" />
<glyph unicode="i" horiz-adv-x="524" d="M78 0v1434h368v-1434h-368z" />
<glyph unicode="j" horiz-adv-x="839" d="M0 201v364h328v-293h82v1162h368v-1233l-205 -201h-368z" />
<glyph unicode="k" horiz-adv-x="1044" d="M78 0v1434h368v-566l201 566h369l-283 -670l332 -764h-389l-225 588l-5 -588h-368z" />
<glyph unicode="l" horiz-adv-x="716" d="M78 0v1434h368v-1160h271v-274h-639z" />
<glyph unicode="m" horiz-adv-x="1187" d="M78 0v1434h391l115 -652h20l115 652h391v-1434h-344l14 618l-129 -618h-114l-125 618l10 -618h-344z" />
<glyph unicode="n" horiz-adv-x="946" d="M78 0v1434h262l164 -529l4 529h360v-1434h-262l-164 528l-4 -528h-360z" />
<glyph unicode="o" d="M61 201v1032l205 201h410l205 -201v-1032l-205 -201h-410zM430 274h82v885h-82v-885z" />
<glyph unicode="p" d="M78 0v1434h602l217 -201v-545l-217 -201h-234v-487h-368zM446 762h82v397h-82v-397z" />
<glyph unicode="q" d="M61 201v1032l205 201h410l205 -201v-934l-152 -143h168v-156h-631zM430 274h82v885h-82v-885z" />
<glyph unicode="r" horiz-adv-x="958" d="M78 0v1434h614l205 -201v-385l-152 -135l152 -140v-573h-369v573h-82v-573h-368zM446 848h82v311h-82v-311z" />
<glyph unicode="s" d="M61 201v264h369v-191h82v293l-225 21l-226 200v445l205 201h385l205 -201v-264h-344v190h-82v-285l225 -20l226 -201v-452l-205 -201h-410z" />
<glyph unicode="t" horiz-adv-x="712" d="M0 1161v273h713v-273h-172v-1161h-369v1161h-172z" />
<glyph unicode="u" d="M61 201v1233h369v-1160h82v1160h369v-1233l-205 -201h-410z" />
<glyph unicode="v" horiz-adv-x="860" d="M-20 1434h368l72 -1024h20l72 1024h369l-179 -1434h-544z" />
<glyph unicode="w" horiz-adv-x="1146" d="M-20 1434h348l96 -594l68 594h163l64 -594l100 594h348l-247 -1434h-287l-49 532h-21l-49 -532h-287z" />
<glyph unicode="x" horiz-adv-x="925" d="M-20 0l268 737l-254 697h368l97 -355h8l96 355h369l-254 -697l268 -737h-368l-111 373h-8l-111 -373h-368z" />
<glyph unicode="y" d="M-20 1434h368l121 -471l125 471h369l-308 -844v-590h-368v590z" />
<glyph unicode="z" horiz-adv-x="839" d="M-20 274l462 885h-325v275h542l201 -275l-463 -885h363v-274h-580z" />
<glyph unicode="{" horiz-adv-x="737" d="M41 623v188h82l61 57v385l279 226h217v-172h-221v-476l-131 -114l131 -115v-475h221v-172h-217l-279 225v385l-61 58h-82z" />
<glyph unicode="|" horiz-adv-x="450" d="M102 0v1434h246v-1434h-246z" />
<glyph unicode="}" horiz-adv-x="737" d="M57 -45v172h222v475l131 115l-131 114v476h-222v172h217l279 -226v-385l61 -57h82v-188h-82l-61 -58v-385l-279 -225h-217z" />
<glyph unicode="~" horiz-adv-x="1204" d="M98 657l17 31q59 113 128.5 165t153.5 52q39 0 77 -10t140 -51l45 -19q49 -23 76 -32q47 -18 76 -19q43 0 80 32t70 85l18 31l127 -146l-19 -31q-66 -106 -116 -149q-63 -53 -152 -53q-43 0 -76 6q-66 12 -137 49l-45 23q-102 53 -155 53q-55 0 -93.5 -33t-72.5 -98 l-17 -31z" />
<glyph unicode="&#xa2;" horiz-adv-x="802" d="M0 1434h356l64 -654l47 654h356l-231 -1244l-221 -190h-332v272h188zM82 1688v155h229v-139h197v139h229v-155l-123 -140h-409z" />
<glyph unicode="&#xa3;" horiz-adv-x="839" d="M0 201v364h328v-293h82v1162h368v-1233l-205 -201h-368z" />
<glyph unicode="&#xa5;" horiz-adv-x="819" d="M78 0v1434h422v278h319v-553h-373v-1159h-368z" />
<glyph unicode="&#xa8;" horiz-adv-x="737" d="M78 0v1434h627v-275h-259v-266h205v-275h-205v-344h259v-274h-627zM106 1548v238h242v-238h-242zM430 1548v238h242v-238h-242z" />
<glyph unicode="&#xa9;" horiz-adv-x="1564" d="M94 281v872l281 281h815l280 -281v-872l-280 -281h-815zM287 360l188 -188h615l188 188v713l-188 189h-615l-188 -189v-713zM498 406v622l141 135h287l141 -135v-209h-238v160h-94v-524h94v198h238v-247l-141 -136h-287z" />
<glyph unicode="&#xab;" horiz-adv-x="860" d="M102 557v315l197 287l111 -65l-111 -379l111 -379l-111 -66zM451 557v315l196 287l111 -65l-111 -379l111 -379l-111 -66z" />
<glyph unicode="&#xad;" horiz-adv-x="368" d="M8 633v205h352v-205h-352z" />
<glyph unicode="&#xae;" horiz-adv-x="1564" d="M94 281v872l281 281h815l280 -281v-872l-280 -281h-815zM287 360l188 -188h615l188 188v713l-188 189h-615l-188 -189v-713zM498 270v893h428l141 -135v-242l-100 -96l100 -96v-324h-238v328h-94v-328h-237zM735 782h94v197h-94v-197z" />
<glyph unicode="&#xb4;" horiz-adv-x="819" d="M78 0v1434h422v278h319v-553h-373v-1159h-368z" />
<glyph unicode="&#xb8;" horiz-adv-x="737" d="M78 0v1434h627v-275h-259v-266h205v-275h-205v-344h259v-274h-627zM106 1548v238h242v-238h-242zM430 1548v238h242v-238h-242z" />
<glyph unicode="&#xbb;" horiz-adv-x="860" d="M102 336l111 379l-111 379l111 65l197 -287v-315l-197 -287zM451 336l110 379l-110 379l110 65l197 -287v-315l-197 -287z" />
<glyph unicode="&#x2c6;" horiz-adv-x="1060" d="M147 1661l250 182h267l249 -182l-65 -113l-318 111l-317 -111z" />
<glyph unicode="&#x2dc;" horiz-adv-x="954" d="M147 1657l281 186l150 -102l135 92l94 -92l-295 -193l-145 107l-131 -88z" />
<glyph unicode="&#x2000;" horiz-adv-x="952" />
<glyph unicode="&#x2001;" horiz-adv-x="1905" />
<glyph unicode="&#x2002;" horiz-adv-x="952" />
<glyph unicode="&#x2003;" horiz-adv-x="1905" />
<glyph unicode="&#x2004;" horiz-adv-x="635" />
<glyph unicode="&#x2005;" horiz-adv-x="476" />
<glyph unicode="&#x2006;" horiz-adv-x="317" />
<glyph unicode="&#x2007;" horiz-adv-x="317" />
<glyph unicode="&#x2008;" horiz-adv-x="238" />
<glyph unicode="&#x2009;" horiz-adv-x="381" />
<glyph unicode="&#x200a;" horiz-adv-x="105" />
<glyph unicode="&#x2010;" horiz-adv-x="368" d="M8 633v205h352v-205h-352z" />
<glyph unicode="&#x2011;" horiz-adv-x="368" d="M8 633v205h352v-205h-352z" />
<glyph unicode="&#x2012;" horiz-adv-x="368" d="M8 633v205h352v-205h-352z" />
<glyph unicode="&#x2013;" horiz-adv-x="1024" d="M61 639v197h902v-197h-902z" />
<glyph unicode="&#x2014;" horiz-adv-x="1638" d="M61 639v197h1516v-197h-1516z" />
<glyph unicode="&#x2018;" horiz-adv-x="532" d="M82 1229v205h369v-275h-152l88 -131l-111 -82z" />
<glyph unicode="&#x2019;" horiz-adv-x="532" d="M82 1159v275h369v-205l-195 -283l-111 82l88 131h-151z" />
<glyph unicode="&#x201a;" horiz-adv-x="532" d="M82 0v274h369v-204l-195 -283l-111 82l88 131h-151z" />
<glyph unicode="&#x201c;" horiz-adv-x="983" d="M82 1229v205h369v-275h-152l88 -131l-111 -82zM532 1229v205h369v-275h-151l88 -131l-111 -82z" />
<glyph unicode="&#x201d;" horiz-adv-x="983" d="M82 1159v275h369v-205l-195 -283l-111 82l88 131h-151zM532 1159v275h369v-205l-194 -283l-111 82l88 131h-152z" />
<glyph unicode="&#x201e;" horiz-adv-x="983" d="M82 0v274h369v-204l-195 -283l-111 82l88 131h-151zM532 0v274h369v-204l-194 -283l-111 82l88 131h-152z" />
<glyph unicode="&#x2026;" horiz-adv-x="1843" d="M123 0v274h369v-274h-369zM737 0v274h369v-274h-369zM1352 0v274h368v-274h-368z" />
<glyph unicode="&#x202f;" horiz-adv-x="381" />
<glyph unicode="&#x2039;" horiz-adv-x="512" d="M102 557v315l197 287l111 -65l-111 -379l111 -379l-111 -66z" />
<glyph unicode="&#x203a;" horiz-adv-x="512" d="M102 336l111 379l-111 379l111 65l197 -287v-315l-197 -287z" />
<glyph unicode="&#x205f;" horiz-adv-x="476" />
<glyph unicode="&#x2122;" horiz-adv-x="1495" d="M25 1249v185h471v-185h-117v-708h-238v708h-116zM551 541v893h344l80 -433h18l76 433h344v-893h-237v567h-11l-106 -567h-156l-106 567h-9v-567h-237z" />
<glyph unicode="&#x25fc;" horiz-adv-x="1433" d="M0 0v1434h1434v-1434h-1434z" />
</font>
</defs>
</svg>
