<?xml version="1.0" standalone="no"?>
<!DOCTYPE svg PUBLIC "-//W3C//DTD SVG 1.1//EN" "http://www.w3.org/Graphics/SVG/1.1/DTD/svg11.dtd" >
<svg xmlns="http://www.w3.org/2000/svg">
<metadata></metadata>
<defs>
<font id="maniaextendedregular" horiz-adv-x="1763" >
<font-face units-per-em="2048" ascent="1556" descent="-492" />
<missing-glyph horiz-adv-x="1081" />
<glyph horiz-adv-x="0" />
<glyph horiz-adv-x="682" />
<glyph unicode=" "  horiz-adv-x="1081" />
<glyph unicode="&#x09;" horiz-adv-x="1081" />
<glyph unicode="&#xa0;" horiz-adv-x="1081" />
<glyph unicode="!" horiz-adv-x="681" d="M180 0v342h344v-342h-344zM180 512v909h340v-909h-340z" />
<glyph unicode="&#x22;" horiz-adv-x="729" d="M94 1450h228l-48 -465h-135zM422 1450h227l-47 -465h-135z" />
<glyph unicode="#" horiz-adv-x="1296" d="M72 637l28 115h260l64 254h-260l29 114h260l67 266h113l-68 -266h303l68 266h113l-68 -266h254l-29 -114h-254l-63 -254h252l-29 -115h-252l-69 -277h-113l70 277h-304l-67 -268h-113l68 268h-260zM473 752h303l64 254h-303z" />
<glyph unicode="$" horiz-adv-x="1830" d="M129 1020q0 98 26.5 170t86 126.5t163 82.5t250.5 28h189v129h221v-129h266q206 0 314.5 -68t134.5 -220h-715v-267h180q97 0 163.5 -4t128.5 -15t101 -31.5t71.5 -52t49.5 -79t26 -109t9 -145.5q0 -128 -31.5 -213t-103 -136t-174.5 -72t-258 -21h-162v-176h-221v176 h-180q-235 0 -364 73t-161 220h705v301h-230q-106 0 -183.5 10.5t-131.5 35t-87.5 57t-51.5 84.5t-24.5 108t-6.5 137zM512 1010q0 -69 27.5 -103.5t74.5 -34.5h230v267h-230q-44 0 -73 -36.5t-29 -92.5zM1065 287h143q37 0 59 0.5t49.5 4t43.5 9.5t33 16.5t25.5 26.5t14 39 t5.5 53q0 39 -12 67.5t-31 44.5t-50 25t-62 12t-75 3h-143v-301z" />
<glyph unicode="%" horiz-adv-x="2635" d="M86 977v115q0 92 7 155t27 114t51 81t83.5 50.5t120 28t164.5 7.5h135q101 0 171.5 -8t125.5 -28t88.5 -50.5t54.5 -81t29 -113t8 -151.5v-115q0 -91 -7.5 -152t-30 -108.5t-55 -74t-90 -43.5t-126 -22.5t-172.5 -5.5h-135q-96 0 -161 6t-118 23.5t-83.5 44.5t-51 74 t-28 106.5t-7.5 147.5zM315 989q0 -68 7.5 -104.5t33.5 -61t70 -32t125 -7.5h115q71 0 113 5t73 16t44.5 36.5t19.5 59.5t6 92v99q0 76 -8 115.5t-37.5 65.5t-77 33t-137.5 7h-103q-67 0 -108 -6t-70 -19t-42.5 -41t-18.5 -63.5t-5 -96.5v-98zM1001 -68l420 1559h207 l-420 -1559h-207zM1497 387v115q0 92 7 155t27 114t51 81t83.5 50.5t120 28t164.5 7.5h135q101 0 171.5 -8t125.5 -28t88.5 -50.5t54.5 -81t29 -113t8 -151.5v-115q0 -91 -7.5 -152t-30.5 -108t-55 -74t-89.5 -43.5t-126 -22t-172.5 -5.5h-135q-96 0 -161 6t-118 23 t-83.5 44t-51 74t-28 106.5t-7.5 147.5zM1726 399q0 -68 7 -104t33.5 -61t70.5 -32t125 -7h115q59 0 96.5 2.5t68.5 11.5t47 21.5t27 38t14 56t3 78.5v99q0 76 -8 115.5t-37.5 65.5t-77 33t-137.5 7h-103q-56 0 -93 -3.5t-65.5 -13.5t-44 -24.5t-25.5 -42t-13 -59.5t-3 -82 v-99z" />
<glyph unicode="&#x26;" horiz-adv-x="2019" d="M102 492q0 91 26.5 162.5t62.5 111.5t87.5 69.5t86 40t73.5 17.5q-90 50 -90 174q0 184 117.5 269t378.5 85h430q121 0 208.5 -21t140 -61t80.5 -88t40 -112h-887q-90 0 -128 -18.5t-38 -76.5q0 -24 7 -42.5t27 -36t32 -25.5t48 -27t48 -26l661 -375q39 65 35 270h340 q0 -174 -21 -264.5t-67 -163.5l219 -127l-147 -223l-230 127q-28 -34 -51 -53.5t-63.5 -39.5t-101.5 -29t-148 -9h-676q-106 0 -195 29.5t-158 88t-108 154.5t-39 220zM444 489q0 -47 12 -81t41 -63.5t85.5 -44.5t138.5 -15h348q83 0 137 8t65 12.5t38 18.5l-668 370 q-197 -14 -197 -205z" />
<glyph unicode="'" horiz-adv-x="509" d="M147 1450h228l-45 -465h-137z" />
<glyph unicode="(" horiz-adv-x="673" d="M70 268v762q0 120 30 212.5t79 150t119.5 94t144 51t159.5 14.5v-282q-132 0 -190 -54t-58 -186v-762q0 -118 64.5 -169t183.5 -54v-287q-94 0 -171 15t-145.5 51t-115 93.5t-73.5 146t-27 204.5z" />
<glyph unicode=")" horiz-adv-x="673" d="M80 45q119 3 183.5 54t64.5 169v762q0 132 -58 186t-190 54v282q86 0 159.5 -14.5t144 -51t119.5 -94t79 -150t30 -212.5v-762q0 -116 -26.5 -204.5t-73 -146t-115 -93.5t-145.5 -51t-172 -15v287z" />
<glyph unicode="*" horiz-adv-x="704" d="M78 1237q0 29 19.5 50.5t47.5 21.5q37 0 76 -39l131 -131l-59 176q-8 21 -8 43q0 35 21.5 55.5t51.5 20.5t51 -20t21 -56q0 -19 -6 -43l-53 -176l121 137q34 39 73 39q30 0 51 -22t21 -50q0 -25 -20 -46.5t-60 -31.5l-174 -43l182 -39q40 -9 60 -29.5t20 -47.5 q0 -30 -20 -52t-50 -22q-39 0 -75 39l-127 133l51 -178q6 -21 6 -39q0 -38 -20 -59t-54 -21q-31 0 -51 19.5t-20 54.5q0 24 8 45l57 176l-125 -139q-34 -39 -73 -39q-30 0 -51 20.5t-21 48.5q0 25 20 47t60 33l180 49l-182 37q-40 9 -60 30t-20 48z" />
<glyph unicode="+" horiz-adv-x="1155" d="M135 520v283h297v297h285v-297h297v-283h-297v-297h-285v297h-297z" />
<glyph unicode="," horiz-adv-x="681" d="M94 -176q81 0 114.5 24t33.5 89v63h-90v397h397v-397q0 -107 -18 -173t-69 -112t-138.5 -64t-229.5 -18v191z" />
<glyph unicode="-" horiz-adv-x="819" d="M16 524v283h775v-283h-775z" />
<glyph unicode="." horiz-adv-x="673" d="M152 0v342h399v-342h-399z" />
<glyph unicode="/" horiz-adv-x="692" d="M16 -182l455 1673h227l-454 -1673h-228z" />
<glyph unicode="0" d="M88 602v172q0 138 10.5 232.5t40.5 171t76.5 121.5t125.5 75.5t180 41.5t247 11h203q151 0 257 -11.5t188.5 -42t132 -76t81.5 -121t44 -169t12 -227.5v-172q0 -101 -6.5 -176.5t-24 -139.5t-42 -107t-67.5 -77t-93.5 -54t-126.5 -32.5t-160 -17t-201 -4.5h-203 q-144 0 -241 9t-177 35t-125.5 66.5t-77 111t-42.5 160t-11 220.5zM432 621q0 -68 4.5 -111.5t19 -81t37.5 -57.5t64.5 -34.5t95 -19t133.5 -4.5h172q89 0 145 4t102.5 17.5t70.5 33t40.5 57.5t21.5 84t5 118v147q0 76 -4.5 124.5t-21 88.5t-41 61t-71.5 35.5t-104.5 18.5 t-148.5 4h-153q-84 0 -139.5 -5t-98.5 -20.5t-66.5 -37t-38.5 -62.5t-19.5 -89t-4.5 -124v-147z" />
<glyph unicode="1" d="M393 1139l273 282h489v-1421h-340v1139h-422z" />
<glyph unicode="2" d="M100 0v328q0 209 134 316t393 126l452 33q140 11 185 44.5t45 131.5q0 68 -25 102t-90 49t-195 15h-860q20 67 58 117t103 89t165.5 59t236.5 20h306q134 0 231 -10t170 -34.5t118.5 -59.5t73.5 -91t39 -123.5t11 -161.5q0 -153 -47.5 -240t-157.5 -132t-311 -60 l-373 -26q-175 -13 -247.5 -46.5t-72.5 -115.5v-45h1200v-285h-1542z" />
<glyph unicode="3" horiz-adv-x="1794" d="M141 1139q17 102 77 161.5t188 90t344 30.5h286q154 0 258.5 -11t182 -35.5t121 -69.5t63.5 -108.5t20 -156.5q0 -92 -13.5 -149t-48 -89t-79.5 -44.5t-121 -16.5q54 -6 91 -16t71.5 -31.5t55 -55.5t32.5 -89t12 -131q0 -66 -5 -115t-18.5 -92.5t-34 -73.5t-55.5 -54.5 t-79.5 -39.5t-108 -25t-139.5 -14t-176 -4h-311q-216 0 -343.5 28.5t-189.5 89t-78 165.5h901q182 0 240.5 27.5t58.5 123.5q0 94 -48 126t-158 32h-416v285h409q129 0 171 24.5t42 108.5q0 83 -62 106t-261 23h-879z" />
<glyph unicode="4" d="M152 307v305q0 39 12 73.5t26.5 58t46.5 53t53 45.5t64 47l736 532h446v-829h193v-285h-193v-307h-342v1114h-51l-651 -469v-53h702l-111 -285h-931z" />
<glyph unicode="5" d="M133 283h1018q87 0 132.5 40t45.5 130q0 97 -44.5 142.5t-133.5 45.5h-760q-102 0 -174 69t-72 169v542h1452v-282h-1110v-217h658q157 0 259 -26t161.5 -86t82.5 -144.5t23 -212.5q0 -137 -25 -223t-89 -139t-160.5 -73t-251.5 -20h-510q-436 0 -502 285z" />
<glyph unicode="6" d="M106 524v398q0 148 27.5 243.5t97 157.5t181 87.5t284.5 25.5h348q222 0 352.5 -32.5t187 -95.5t61.5 -169h-940q-142 0 -199 -35t-57 -129v-518q0 -71 21.5 -108t77 -53.5t163.5 -16.5h350q156 0 210 37.5t54 140.5q0 65 -21 101.5t-79 56.5t-164 20h-612l108 278h520 q85 0 150 -4.5t127.5 -15.5t107.5 -31t83.5 -51t62 -74.5t36.5 -102.5t13 -134v-82q0 -164 -47 -256t-161 -135t-319 -43h-446q-174 0 -283 26t-176 91t-93 164.5t-26 258.5z" />
<glyph unicode="7" d="M115 1421h1566v-168q0 -16 -2.5 -31t-10 -31t-12.5 -26.5t-18.5 -29.5t-19 -26.5t-24 -30t-23.5 -29.5l-828 -1049h-424l906 1139h-650q-61 0 -103.5 2t-91 8.5t-81.5 18.5t-66.5 33t-55 50.5t-38 72t-24.5 97.5z" />
<glyph unicode="8" d="M102 387q0 76 16.5 134t41 92.5t64.5 59.5t73.5 35.5t81.5 20.5q-42 6 -71.5 12.5t-64 19.5t-58 33.5t-43.5 50.5t-30 74t-10 101q0 111 24.5 186.5t83 128.5t158 77t248.5 24h525q149 0 249 -24t159 -77t83.5 -128.5t24.5 -186.5q0 -84 -21 -141.5t-61.5 -87.5 t-85 -43.5t-107.5 -18.5q39 -7 66.5 -14.5t62.5 -22t58.5 -37t45 -55t32 -81t10.5 -109.5q0 -123 -31.5 -206.5t-98.5 -131.5t-159.5 -68t-226.5 -20h-525q-272 0 -393 93t-121 310zM446 424q0 -90 57 -136t193 -46h365q76 0 127 12t78 37t38 56.5t11 76.5q0 86 -55 130 t-199 44h-365q-135 0 -192.5 -43t-57.5 -131zM446 1020q0 -88 54 -128t196 -40h365q145 0 199.5 39.5t54.5 128.5q0 95 -55.5 137.5t-198.5 42.5h-365q-78 0 -129 -12t-77 -37.5t-35 -55.5t-9 -75z" />
<glyph unicode="9" d="M109 956q0 93 16.5 163.5t56 130t104 97.5t162 59t228.5 21h368q329 0 472 -114t143 -391v-385q0 -148 -30 -248t-101 -169.5t-189 -100.5t-295 -31h-299q-269 0 -414 63t-188 193h877q52 0 87.5 3t72.5 11.5t59.5 25.5t41.5 44.5t27.5 69t8.5 98.5v469q0 96 -54 129.5 t-202 33.5h-373q-140 0 -191 -33.5t-51 -129.5q0 -53 8 -85.5t32.5 -58.5t71.5 -37.5t122 -11.5h637l-107 -274h-575q-283 0 -404.5 104t-121.5 354z" />
<glyph unicode=":" horiz-adv-x="673" d="M152 0v342h399v-342h-399zM152 647v340h399v-340h-399z" />
<glyph unicode=";" horiz-adv-x="673" d="M94 -176q81 0 114.5 24t33.5 89v63h-90v397h397v-397q0 -106 -18 -171.5t-68 -112.5t-139 -66t-230 -17v191zM152 647v340h399v-340h-399z" />
<glyph unicode="&#x3c;" horiz-adv-x="751" d="M63 602v203l586 397v-274l-346 -219l346 -222v-274z" />
<glyph unicode="=" horiz-adv-x="1101" d="M139 344v227h836v-227h-836zM139 754v227h836v-227h-836z" />
<glyph unicode="&#x3e;" horiz-adv-x="751" d="M98 213v274l346 222l-346 219v274l584 -397v-203z" />
<glyph unicode="?" horiz-adv-x="1775" d="M109 1151q35 143 148.5 214t324.5 71h635q264 0 366.5 -90t102.5 -316q0 -57 -5.5 -100.5t-20.5 -80t-34.5 -63t-53 -48t-70.5 -36.5t-93.5 -28t-114.5 -22t-141 -19q-71 -9 -112 -18.5t-61.5 -26t-26 -34t-5.5 -48.5v-55h-338v131q0 149 89 219.5t276 91.5 q220 25 267 37q82 19 98 64q6 16 6 36q0 73 -57.5 97t-215.5 24h-964zM608 0v342h340v-342h-340z" />
<glyph unicode="@" horiz-adv-x="1329" d="M82 885q0 109 39 210t110.5 182t185.5 130t253 49q137 0 249.5 -47.5t184 -127t110.5 -180t39 -208.5q0 -66 -11.5 -119.5t-38 -100t-76 -72.5t-119.5 -26q-42 0 -72 9t-47 26t-25.5 32t-15.5 38q-41 -55 -91 -80t-147 -25q-121 0 -189.5 79.5t-68.5 189.5q0 121 83 215 t218 94q91 0 141 -29t85 -82l6 99h92l-43 -357q-2 -12 -2 -32q0 -43 20.5 -63.5t65.5 -20.5q73 0 109 64.5t36 170.5q0 57 -15 117.5t-52 123t-91.5 111.5t-141.5 80t-193 31q-111 0 -204.5 -41t-154 -108.5t-94 -153t-33.5 -176.5q0 -98 31 -183.5t90 -151.5t153 -104 t212 -38q195 0 319 116l64 -73q-64 -59 -164.5 -96.5t-224.5 -37.5q-113 0 -209.5 31t-164 85t-115 126t-70.5 154t-23 170zM457 850q0 -74 45 -127t127 -53q97 0 149.5 61.5t52.5 145.5q0 76 -44.5 130t-124.5 54q-95 0 -150 -64t-55 -147z" />
<glyph unicode="A" horiz-adv-x="2013" d="M16 0l734 1421h370q93 0 159 -54.5t116 -152.5l626 -1214h-424l-124 244h-639l-115 295h604l-299 583l-586 -1122h-422z" />
<glyph unicode="B" horiz-adv-x="1816" d="M131 0v1421h1116q116 0 191.5 -13.5t137.5 -51.5t91 -111.5t29 -187.5q0 -58 -5 -100.5t-19.5 -83t-39 -68t-64.5 -47.5t-95 -29v-14q62 -4 106.5 -22t71 -45t42 -68.5t20.5 -84t5 -100.5q0 -74 -10.5 -131.5t-28.5 -99t-49 -71t-66 -47.5t-86 -28.5t-102 -14t-121 -3.5 h-1124zM510 311h655q96 0 135 30t39 114t-34 109.5t-131 25.5h-562l-102 262h643q100 0 132 26t32 111q0 68 -22 94.5t-97 26.5h-688v-799z" />
<glyph unicode="C" horiz-adv-x="1863" d="M88 526v369q0 99 16.5 177.5t45 134t73.5 96.5t95 65.5t117.5 39t132.5 19.5t149 5h512q69 0 119 -2.5t105 -10.5t93.5 -22.5t76.5 -39t63.5 -59t44.5 -84t28 -112.5h-1083q-117 0 -157 -56.5t-40 -211.5v-222q0 -86 7 -137t28.5 -89.5t61.5 -53.5t106 -15h1079 q-23 -141 -123 -225q-46 -37 -95.5 -59.5t-114 -31.5t-108.5 -11t-132 -2h-465q-86 0 -141.5 2.5t-129.5 13.5t-120.5 32.5t-97.5 60.5t-79.5 95.5t-47.5 141t-19 192.5z" />
<glyph unicode="D" horiz-adv-x="1843" d="M125 0v1421h1051q301 0 436 -126.5t135 -424.5v-299q0 -150 -26 -253.5t-86 -176.5t-160.5 -107t-247.5 -34h-594l-129 330h661q101 0 146 62t45 179v299q0 131 -43 176.5t-148 45.5h-661v-1092h-379z" />
<glyph unicode="E" horiz-adv-x="1708" d="M121 238v946q0 100 72 168.5t174 68.5h1230v-311h-1097v-799h1110v-311h-1243q-101 0 -173.5 70t-72.5 168zM498 850h954l102 -262h-954z" />
<glyph unicode="F" horiz-adv-x="1665" d="M104 0v1184q0 100 72 168.5t174 68.5h1233v-311h-1100v-1110h-379zM483 831h955l121 -311h-955z" />
<glyph unicode="G" horiz-adv-x="1890" d="M98 524v369q0 99 16.5 177.5t45.5 134.5t74 97t95 65.5t117 39.5t130.5 20t144.5 5h483q75 0 116 -1t107.5 -7t104.5 -18.5t87 -36t77.5 -58.5t53 -87.5t34.5 -121.5h-1063q-142 0 -188 -65.5t-46 -248.5v-210q0 -62 7 -108t22 -76.5t34 -49.5t49 -29t59.5 -13t72.5 -3 h473q107 0 155 50t48 192h-444l-103 262h932v-248q0 -122 -11.5 -208.5t-41 -151t-71 -103.5t-111 -63t-152 -32.5t-201.5 -8.5h-514q-77 0 -139 5.5t-125 20.5t-110.5 40t-90 66t-69.5 96.5t-42.5 133t-15.5 174.5z" />
<glyph unicode="H" horiz-adv-x="1912" d="M121 0v1421h379v-1421h-379zM500 887h927v534h379v-1421h-379v557h-798z" />
<glyph unicode="I" horiz-adv-x="614" d="M117 0v1421h379v-1421h-379z" />
<glyph unicode="J" horiz-adv-x="1615" d="M27 317h1009q65 0 88 26t23 95v983h379v-983q0 -97 -10 -166t-35.5 -120t-60.5 -82t-93.5 -50t-126 -25.5t-164.5 -6.5h-559q-122 0 -200 14.5t-132.5 52t-81 100t-36.5 162.5z" />
<glyph unicode="K" horiz-adv-x="1810" d="M113 0v1421h379v-510h124l613 510h543l-814 -653l850 -768h-512l-680 596h-124v-596h-379z" />
<glyph unicode="L" horiz-adv-x="1583" d="M111 238v1183h378v-1091h1022v-330h-1155q-101 0 -173 70t-72 168z" />
<glyph unicode="M" horiz-adv-x="2471" d="M127 0v1421h422q48 0 88 -17t72 -52.5t54 -69t50 -86.5l434 -821l451 821q59 108 125.5 166.5t163.5 58.5h383v-1421h-379v1044l-570 -1044h-348l-567 1044v-1044h-379z" />
<glyph unicode="N" horiz-adv-x="1959" d="M137 0v1421h391q38 0 72 -7t65 -25t53 -33.5t51.5 -48t45.5 -51.5t49 -60l602 -747v972h379v-1421h-295q-55 0 -101 16t-85 47.5t-70.5 65.5t-71.5 83q-6 9 -10 13l-696 838v-1063h-379z" />
<glyph unicode="O" horiz-adv-x="1875" d="M84 510v401q0 127 33.5 222t88 151t136.5 90t166 46t190 12h471q102 0 185 -11.5t166.5 -46t139.5 -90.5t91 -151t35 -222v-401q0 -92 -17.5 -167t-47.5 -128.5t-75 -94t-96 -65.5t-115.5 -40t-127.5 -21t-138 -6h-471q-107 0 -191 12t-166 46t-136 90.5t-87.5 151.5 t-33.5 222zM473 551q0 -62 11 -105.5t28.5 -68.5t48 -38.5t61 -17.5t76.5 -4h471q38 0 65 3t55 11t46 24t33 41.5t22 64t7 90.5v319q0 76 -16.5 124.5t-51 71t-70 29.5t-90.5 7h-471q-38 0 -64.5 -2.5t-54.5 -10.5t-45.5 -24t-32.5 -41t-21.5 -63.5t-6.5 -90.5v-319z" />
<glyph unicode="P" horiz-adv-x="1679" d="M117 0v1421h1024q263 0 374 -120.5t111 -401.5q0 -125 -12.5 -209.5t-43.5 -150t-87 -102t-138.5 -54.5t-203.5 -18h-516l-129 329h569q60 0 90.5 5.5t51 29t25.5 61t5 109.5q0 115 -31.5 154t-140.5 39h-569v-1092h-379z" />
<glyph unicode="Q" horiz-adv-x="1902" d="M84 510v401q0 127 33.5 222t88 151t136.5 90t166 46t190 12h471q102 0 185 -11.5t166.5 -46t139.5 -90.5t91 -151t35 -222v-401q0 -80 -17 -160l150 -96l-180 -287l-160 103q-144 -82 -410 -82h-471q-107 0 -191 12t-166 46t-136 90.5t-87.5 151.5t-33.5 222zM473 551 q0 -62 11 -105.5t28.5 -68.5t48 -38.5t61 -17.5t76.5 -4h471h27l-371 240l197 274l375 -241v280q0 76 -16.5 124.5t-51 71t-70 29.5t-90.5 7h-471q-38 0 -64.5 -2.5t-54.5 -10.5t-45.5 -24t-32.5 -41t-21.5 -63.5t-6.5 -90.5v-319z" />
<glyph unicode="R" horiz-adv-x="1822" d="M123 0v1421h1137q89 0 155.5 -11t124 -38.5t93 -73.5t55.5 -118t20 -170q0 -167 -53.5 -256t-188.5 -103v-6q117 -5 179.5 -70.5t62.5 -185.5v-389h-379v317q0 179 -158 179h-561l-108 276h663q99 0 131.5 31t32.5 131q0 103 -21.5 139.5t-97.5 36.5h-708v-1110h-379z " />
<glyph unicode="S" horiz-adv-x="1837" d="M84 997q0 67 9 122t24 97.5t41.5 75t54 55t70 38.5t81.5 25t96 14t106 6.5t118 1.5h451q56 0 91 -0.5t87 -3.5t85.5 -9t76.5 -16.5t71 -26.5t58.5 -39t49 -53.5t33 -71t19.5 -90.5h-1022q-59 0 -100 -5.5t-64.5 -14.5t-36.5 -25.5t-16.5 -33.5t-3.5 -44q0 -41 9 -66.5 t31.5 -38t47 -16t67.5 -4.5l609 -10q164 -2 261 -19.5t158.5 -65.5t83 -123t21.5 -201q0 -100 -8 -160t-42 -126t-98.5 -100.5t-181 -57.5t-286.5 -23h-451q-66 0 -101 0.5t-92 3t-87.5 8t-75 16.5t-70 26.5t-56.5 38.5t-49 54t-34 72t-25 92h1041q136 0 186.5 23.5 t50.5 107.5q0 38 -6.5 61.5t-18 38t-38 21.5t-54.5 9t-81 3l-535 10q-92 2 -142.5 4.5t-119.5 11.5t-105 25.5t-78.5 47t-62 75t-33.5 109.5t-14 151z" />
<glyph unicode="T" horiz-adv-x="1638" d="M45 1092v329h1575v-329h-1575zM635 0v1092l379 -103v-989h-379z" />
<glyph unicode="U" horiz-adv-x="1843" d="M113 473v948h379v-940q0 -30 4 -53.5t13.5 -40.5t19.5 -29t29.5 -19.5t34.5 -12t44 -6.5t48 -2.5t56 -0.5h416q53 0 84 3t60 13t43 30t22 52.5t8 82.5v923h379v-948q0 -143 -32.5 -236t-107 -148.5t-183 -78t-273.5 -22.5h-416q-106 0 -189 6.5t-147 22t-110.5 35t-79 52 t-52.5 66.5t-31 84t-15 100t-4 119z" />
<glyph unicode="V" horiz-adv-x="1955" d="M-6 1421h428l553 -1122l553 1122h424l-709 -1421h-338q-202 0 -315 225z" />
<glyph unicode="W" horiz-adv-x="2799" d="M-14 1421h391l420 -1083h10l383 1083h420l397 -1083h10l414 1083h391l-551 -1421h-336q-95 0 -164 66t-106 170l-264 731l-342 -967h-340q-96 0 -164.5 65t-108.5 171z" />
<glyph unicode="X" horiz-adv-x="2015" d="M0 0l733 752l-631 669h451l451 -456l450 456h447l-629 -669l731 -752h-473l-526 532l-529 -532h-475z" />
<glyph unicode="Y" horiz-adv-x="1843" d="M-20 1421h469l483 -620l483 620h451l-746 -942v-479h-379v479z" />
<glyph unicode="Z" horiz-adv-x="1701" d="M43 0v186q0 84 44.5 143.5t131.5 123.5l856 626v13h-987v329h1548v-207q0 -75 -38 -126.5t-113 -106.5l-858 -641v-10h518q69 0 119 -2.5t105 -10.5t93.5 -22.5t76.5 -39t63.5 -59t44.5 -84t28 -112.5h-1632z" />
<glyph unicode="[" horiz-adv-x="591" d="M131 -227v1786h379v-113h-150v-1563h156v-112z" />
<glyph unicode="\" horiz-adv-x="692" d="M12 1491h228l454 -1673h-227zM467 -182h227h-227z" />
<glyph unicode="]" horiz-adv-x="591" d="M102 -117h158v1563h-151v113h378v-1786l-385 -2v112z" />
<glyph unicode="^" horiz-adv-x="831" d="M80 688l301 625h82l299 -625h-68l-272 399l-277 -399h-65z" />
<glyph unicode="_" horiz-adv-x="796" d="M2 -63h832v-113h-832v113z" />
<glyph unicode="`" horiz-adv-x="655" d="M96 1401l156 151l307 -350l-76 -67z" />
<glyph unicode="a" horiz-adv-x="1564" d="M76 459v137q0 195 97 297t280 102h1001v-995h-326v711h-548q-34 0 -57.5 -1t-43 -6.5t-31.5 -11t-21.5 -19.5t-14 -26.5t-7.5 -38t-3.5 -48t-0.5 -62.5t1.5 -70t8 -53t11.5 -38t18.5 -25.5t22.5 -15.5t31.5 -7.5t36.5 -3t45 -0.5h4h548l-96 -285h-579q-201 0 -289 113 t-88 346z" />
<glyph unicode="b" horiz-adv-x="1605" d="M117 0v1421h325v-426h676q203 0 290 -99t87 -327v-202q0 -193 -95 -280t-282 -87h-563l-113 285h566q54 0 82.5 6.5t48 30.5t25 63.5t5.5 112.5q0 45 -1.5 70.5t-6.5 53.5t-15.5 42t-28.5 26t-44.5 16.5t-64.5 4.5h-566v-711h-325z" />
<glyph unicode="c" horiz-adv-x="1521" d="M76 496q0 90 7 155.5t25.5 126.5t52 100.5t86 70t128 44t176.5 13.5h455q98 0 166 -12.5t123 -44t88.5 -87t50.5 -139.5h-883q-28 0 -40.5 -0.5t-32 -3t-27 -8t-19 -16.5t-15.5 -27t-9 -40.5t-6 -56.5t-1 -75t1 -74t5 -55.5t7 -40t13.5 -26.5t17 -16.5t25.5 -8t30.5 -3 t39.5 -0.5h11h887q-27 -165 -122 -224.5t-310 -59.5h-455q-99 0 -170 10t-125 35t-88 62t-55 96t-29 131t-8 174z" />
<glyph unicode="d" horiz-adv-x="1605" d="M113 367v202q0 228 86.5 327t289.5 99h676v426h326v-1421h-326v711h-565q-46 0 -75.5 -8t-47 -21t-26 -42.5t-11 -59t-2.5 -82.5q0 -73 6 -112.5t25 -63.5t48 -30.5t83 -6.5h565l-112 -285h-564q-187 0 -281.5 87t-94.5 280z" />
<glyph unicode="e" horiz-adv-x="1474" d="M109 205v586q0 48 8 82t30 63.5t65.5 44t109.5 14.5h1081v-243h-969v-508h969v-244h-1081q-66 0 -109.5 15t-65.5 44.5t-30 63.5t-8 82zM434 596h873l77 -199h-872z" />
<glyph unicode="f" horiz-adv-x="1048" d="M57 711v284h131v97q0 80 15.5 134.5t48.5 93.5t92 60.5t139.5 31t198.5 9.5h170q44 0 80 -8v-270q-36 8 -80 8h-188q-38 0 -62.5 -2t-42 -10.5t-26 -16t-13 -29t-5.5 -39.5t-1 -55v-4h420v-284h-420v-711h-326v711h-131z" />
<glyph unicode="g" horiz-adv-x="1585" d="M86 492q0 75 3.5 130t13 111t27 93.5t46 72t69 54t96.5 31t128 11.5h578l110 -250h-577q-41 0 -65.5 -2.5t-45.5 -13t-30.5 -25t-16.5 -46t-8.5 -68t-1.5 -98.5q0 -106 14 -155.5t47.5 -68t106.5 -18.5h577v745h326v-952q0 -115 -14 -193.5t-46 -137t-89 -91t-138 -48 t-199 -15.5h-405q-98 0 -160.5 4.5t-118.5 18.5t-88.5 40.5t-54.5 68.5t-33 105h850q106 0 138 29.5t32 132.5v43h-688q-74 0 -131.5 13t-97.5 34.5t-68.5 58t-45 74.5t-25.5 92.5t-12 103.5t-3 116z" />
<glyph unicode="h" horiz-adv-x="1576" d="M109 0v1421h325v-1421h-325zM434 711l115 284h600q166 0 242.5 -78t76.5 -239v-678h-325v567q0 75 -30.5 109.5t-104.5 34.5h-574z" />
<glyph unicode="i" horiz-adv-x="487" d="M82 0v995h326v-995h-326zM82 1171v250h326v-250h-326z" />
<glyph unicode="j" horiz-adv-x="501" d="M0 -74q56 0 75 25t19 69v975h326v-1007q0 -162 -78 -229.5t-244 -67.5q-58 0 -98 12v223zM94 1171v250h326v-250h-326z" />
<glyph unicode="k" horiz-adv-x="1404" d="M96 0v1421h326v-776h59l439 350h434l-531 -430l584 -565h-432l-490 471h-63v-471h-326z" />
<glyph unicode="l" horiz-adv-x="546" d="M113 0v1421h325v-1421h-325z" />
<glyph unicode="m" horiz-adv-x="2340" d="M111 0v995h325v-995h-325zM436 711l99 284h1370q162 0 240.5 -93t78.5 -259v-643h-326v567q0 75 -30.5 109.5t-104.5 34.5h-432v-711h-325v711h-570z" />
<glyph unicode="n" horiz-adv-x="1576" d="M117 0v995h325v-995h-325zM442 711l99 284h616q162 0 241 -93t79 -259v-643h-326v567q0 75 -30.5 109.5t-104.5 34.5h-574z" />
<glyph unicode="o" horiz-adv-x="1574" d="M84 496q0 107 7.5 180t29.5 133t56 95.5t91.5 59.5t132 33t181.5 9h428q109 0 182.5 -8t131.5 -31t91.5 -57t55 -94.5t29 -134.5t7.5 -185q0 -106 -8 -179.5t-30 -133t-56.5 -95t-92 -59t-131 -32.5t-179.5 -9h-428q-104 0 -178.5 9.5t-131.5 34t-92 61t-57 96t-30.5 132 t-8.5 175.5zM412 496q0 -59 3.5 -93.5t13 -63t29.5 -41.5t50.5 -19.5t79.5 -6.5h428q47 0 75 6t47.5 18.5t28.5 41t12 63t3 95.5q0 55 -1.5 87t-8 60.5t-16 41t-30 22.5t-45 12t-65.5 2h-428q-43 0 -68.5 -2t-47 -11.5t-32 -22.5t-18 -41t-9 -60.5t-1.5 -87.5z" />
<glyph unicode="p" horiz-adv-x="1564" d="M104 -430v1425h1002q183 0 280 -102t97 -297v-137q0 -233 -88 -346t-289 -113h-580l-96 285h549q90 0 117 12q44 19 55 97q6 40 6 104q0 54 -1 80.5t-7 55.5t-16 40t-31.5 22t-49.5 13t-73 2h-549v-1141h-326z" />
<glyph unicode="q" horiz-adv-x="1564" d="M76 459v137q0 195 97 297t280 102h1001v-1425h-326v1141h-548q-34 0 -57.5 -1t-43 -6.5t-31.5 -11t-21.5 -19.5t-14 -26.5t-7.5 -38t-3.5 -48t-0.5 -62.5t1.5 -70t8 -53t11.5 -38t18.5 -25.5t22.5 -15.5t31.5 -7.5t36.5 -3t45 -0.5h4h548l-96 -285h-579q-201 0 -289 113 t-88 346z" />
<glyph unicode="r" horiz-adv-x="1275" d="M102 0v995h326v-995h-326zM428 711l115 284h415q125 0 204 -85.5t91 -198.5h-825z" />
<glyph unicode="s" horiz-adv-x="1490" d="M61 680q0 93 26.5 156t63 96.5t109.5 50.5t128.5 20t158.5 3h385q48 0 77 -0.5t78 -4.5t81 -12t71 -23.5t63.5 -37.5t43.5 -56t24 -77h-864q-82 0 -105.5 -14.5t-23.5 -53.5q0 -70 106 -76l574 -26q62 -3 105.5 -9t93 -25t79.5 -50t50 -86t20 -131q0 -85 -26.5 -146.5 t-68.5 -97.5t-108 -57t-131.5 -28t-152.5 -7h-351q-185 0 -257 14q-150 29 -199 145q-11 24 -17 52h824q108 0 140 15.5t32 72.5q0 46 -26 61.5t-99 18.5l-582 22q-66 2 -122 19.5t-101.5 51.5t-72 90.5t-26.5 129.5z" />
<glyph unicode="t" horiz-adv-x="1374" d="M27 711v284h120v209h326v-209h807v-284h-807v-342q0 -46 15.5 -65t58.5 -19h774q-18 -147 -103 -216t-260 -69h-430q-58 0 -100.5 3t-89.5 12.5t-79 29t-59 49t-40 75.5t-13 107v435h-120z" />
<glyph unicode="u" horiz-adv-x="1568" d="M96 328v667h326v-549q0 -39 4 -64t15.5 -49.5t37 -36t64.5 -11.5h600l-115 -285h-594q-338 0 -338 328zM1143 0v995h325v-995h-325z" />
<glyph unicode="v" horiz-adv-x="1384" d="M-14 995h331l377 -690l379 690h330l-514 -995h-189q-108 0 -183.5 58t-131.5 167z" />
<glyph unicode="w" horiz-adv-x="2267" d="M-8 995h338l325 -690l324 690h326l325 -690l324 690h340l-471 -995h-199q-188 0 -293 225l-188 408l-295 -633h-199q-187 0 -293 225z" />
<glyph unicode="x" horiz-adv-x="1419" d="M2 0l475 535l-381 460h377l229 -274l240 274h373l-377 -450l483 -545h-395l-311 356l-320 -356h-393z" />
<glyph unicode="y" horiz-adv-x="1400" d="M16 995h344l342 -690l342 690h342l-491 -995q-39 -79 -72 -133.5t-76.5 -107t-92.5 -85t-114 -58.5t-147.5 -37t-187.5 -11v305q135 0 199.5 25t101.5 102z" />
<glyph unicode="z" horiz-adv-x="1323" d="M80 0v123q0 86 45 148t131 118l502 322h-670v284h1176v-129q0 -77 -38.5 -131t-113.5 -102l-547 -348h441q125 0 203.5 -86t90.5 -199h-1220z" />
<glyph unicode="{" horiz-adv-x="622" d="M63 631q136 75 136 200v353q0 356 419 356l-2 -113q-105 0 -147.5 -44.5t-42.5 -153.5v-377q0 -156 -123 -221q54 -29 88.5 -82.5t34.5 -130.5v-385q0 -103 45 -147t147 -44v-112q-84 0 -156 16t-132.5 50.5t-95.5 95t-35 141.5v397q0 71 -36.5 118t-99.5 83z" />
<glyph unicode="|" horiz-adv-x="409" d="M121 -272v1785h170v-1785h-170z" />
<glyph unicode="}" horiz-adv-x="618" d="M35 -158q102 0 147 44t45 147v385q0 77 34.5 130.5t88.5 82.5q-123 65 -123 221v377q0 109 -42.5 153.5t-147.5 44.5l-2 113q420 0 420 -356v-353q0 -125 135 -200q-63 -36 -99 -82.5t-36 -118.5v-397q0 -81 -35 -141.5t-96 -95t-133 -50.5t-156 -16v112z" />
<glyph unicode="~" horiz-adv-x="1210" d="M119 696q4 50 23.5 95.5t56 84.5t98.5 62t141 23q106 0 189 -50q3 -2 22 -13t24 -13.5l21 -10.5t26 -10.5t24.5 -5t29.5 -2.5q60 0 90.5 31t32.5 69h182q-8 -118 -81.5 -191t-215.5 -73q-108 0 -192 53q-5 3 -18.5 11.5t-19 11.5t-17.5 9.5t-20.5 9t-20.5 6t-24 5 t-26 1.5q-114 0 -135 -103h-190z" />
<glyph unicode="&#xa3;" horiz-adv-x="1601" d="M88 0v221q106 38 150.5 110.5t44.5 200.5h-174v228h151q-5 21 -13.5 40t-26 46t-23.5 39q-37 76 -37 172q0 182 123 273t413 91h230q137 0 232 -12.5t171.5 -43.5t122 -86.5t66.5 -139.5h-801q-88 0 -137 -15.5t-64.5 -40.5t-15.5 -65q0 -61 41 -131q4 -6 14 -23.5 t14.5 -26t11.5 -23t11.5 -28t7.5 -26.5h760v-228h-754q0 -162 -51 -247h963v-285h-1430z" />
<glyph unicode="&#xa4;" horiz-adv-x="1363" d="M180 1047l137 135l156 -156q37 29 94.5 46.5t120.5 14.5q134 -7 203 -57l158 156l135 -135l-160 -156q1 -3 23.5 -40t33 -70t11.5 -76q1 -33 -3 -62.5t-15 -58t-17 -42.5t-21.5 -41t-15.5 -28l154 -153l-138 -129l-153 153q-6 -3 -29 -16.5t-35 -18.5t-35.5 -13.5 t-49.5 -11t-58 -1.5q-117 3 -197 65l-160 -159l-133 133l154 157q-52 64 -66 149t5.5 154.5t58.5 106.5zM500 678q6 -73 58.5 -123.5t121.5 -50.5q62 0 105.5 31.5t60 70t14.5 72.5q6 72 -46 132t-134 60q-80 0 -132.5 -60t-47.5 -132z" />
<glyph unicode="&#xa6;" horiz-adv-x="1167" d="M422 0v676h323v-676h-323zM422 1014v676h323v-676h-323z" />
<glyph unicode="&#xa7;" horiz-adv-x="1538" d="M53 606v53q0 128 42 196.5t98 82.5q-34 21 -46 55.5t-12 118.5v35q0 62 20 110.5t65 87.5t126 59.5t195 20.5h473q327 0 375 -225h-795q-93 0 -134.5 -24.5t-41.5 -88.5q0 -63 41 -83.5t147 -20.5h463q225 0 319.5 -78.5t94.5 -245.5v-57q0 -115 -40.5 -184.5 t-115.5 -83.5q37 -28 55.5 -61.5t18.5 -100.5v-63q0 -133 -112 -197t-380 -64h-368q-347 0 -402 220h758q120 0 170.5 24.5t50.5 89.5q0 61 -50.5 89t-166.5 28h-409q-169 0 -266.5 35.5t-135 100.5t-37.5 171zM334 623q0 -60 35.5 -87.5t130.5 -27.5h524q101 0 138.5 29 t37.5 86v26q0 59 -38.5 90t-135.5 31h-526q-93 0 -129.5 -31.5t-36.5 -91.5v-24z" />
<glyph unicode="&#xa9;" horiz-adv-x="1515" d="M37 711q0 196 96.5 362t262.5 262.5t362 96.5q195 0 361 -96.5t263 -262.5t97 -362q0 -147 -57.5 -281t-154 -230.5t-230 -154t-279.5 -57.5q-196 0 -362 97t-262.5 263.5t-96.5 362.5zM201 711q0 -152 74 -280t202 -202.5t281 -74.5q112 0 215 44t178 118.5t119.5 177.5 t44.5 217t-44.5 217t-119.5 177.5t-178 118.5t-215 44q-153 0 -281 -74.5t-202 -202.5t-74 -280zM338 608v185q0 85 22.5 140t68 82t96.5 36.5t126 9.5h256q49 0 82 -3t67.5 -12.5t56 -27t38 -48.5t23.5 -75h-543q-58 0 -78.5 -28.5t-20.5 -104.5v-111q0 -84 20 -115.5 t83 -31.5h539q-10 -69 -62 -113q-30 -25 -69.5 -37t-68.5 -14t-87 -2h-232q-43 0 -71 1t-65 7t-60 16.5t-48.5 30t-39.5 48t-23.5 71t-9.5 96.5z" />
<glyph unicode="&#xab;" horiz-adv-x="1052" d="M88 516l242 459l213 -115l-181 -344l181 -321l-203 -125zM510 516l242 459l215 -115l-183 -344l183 -321l-203 -125z" />
<glyph unicode="&#xac;" horiz-adv-x="1136" d="M94 633v217h948v-553h-219v336h-729z" />
<glyph unicode="&#xad;" horiz-adv-x="819" d="M16 524v283h775v-283h-775z" />
<glyph unicode="&#xae;" horiz-adv-x="1515" d="M37 711q0 196 96.5 362t262.5 262.5t362 96.5q195 0 361 -96.5t263 -262.5t97 -362q0 -147 -57.5 -281t-154 -230.5t-230 -154t-279.5 -57.5q-196 0 -362 97t-262.5 263.5t-96.5 362.5zM201 711q0 -152 74 -280t202 -202.5t281 -74.5q112 0 215 44t178 118.5t119.5 177.5 t44.5 217t-44.5 217t-119.5 177.5t-178 118.5t-215 44q-153 0 -281 -74.5t-202 -202.5t-74 -280zM371 356v711h567q115 0 170 -43t55 -160q0 -85 -27 -130t-94 -52q59 -5 90 -38t31 -93v-195h-190v162q0 86 -78 86h-281l-55 141h332q51 0 66.5 14t15.5 64q0 53 -11 70.5 t-49 17.5h-354v-555h-188z" />
<glyph unicode="&#xb0;" horiz-adv-x="757" d="M94 1149q0 116 83.5 199.5t201.5 83.5q117 0 201 -83.5t84 -199.5q0 -118 -84 -201.5t-201 -83.5q-118 0 -200.5 83t-84.5 202zM225 1149q2 -65 46 -109.5t108 -44.5q63 0 108 45t45 109q0 62 -45.5 106.5t-109.5 44.5q-63 0 -107.5 -44.5t-44.5 -106.5z" />
<glyph unicode="&#xb1;" horiz-adv-x="1136" d="M94 0v217h948v-217h-948zM94 553v217h365v225h217v-225h366v-217h-366v-234h-217v234h-365z" />
<glyph unicode="&#xb5;" horiz-adv-x="1568" d="M96 -430v1425h326v-594q0 -39 4 -64t15.5 -49.5t37 -36t64.5 -11.5h418q74 0 128 37t54 106v612h325v-995h-315l10 190h-14q-59 -202 -297 -202h-139q-107 0 -177.5 33.5t-107.5 128.5h-6v-580h-326z" />
<glyph unicode="&#xb6;" horiz-adv-x="1757" d="M82 922q0 218 138.5 358.5t361.5 140.5h577v-1536h-342v537h-235q-228 0 -364 141t-136 359zM817 -115h342h-342zM1317 -115v1536h342v-1536h-342z" />
<glyph unicode="&#xb7;" horiz-adv-x="630" d="M186 393v260h258v-260h-258z" />
<glyph unicode="&#xbb;" horiz-adv-x="1052" d="M74 186l182 344l-182 320l202 125l254 -445l-241 -460zM496 186l182 344l-182 320l202 125l254 -445l-241 -460z" />
<glyph unicode="&#xf7;" horiz-adv-x="1136" d="M94 416v217h948v-217h-948zM459 53v217h217v-217h-217zM459 776v219h217v-219h-217z" />
<glyph unicode="&#x2000;" horiz-adv-x="845" />
<glyph unicode="&#x2001;" horiz-adv-x="1690" />
<glyph unicode="&#x2002;" horiz-adv-x="845" />
<glyph unicode="&#x2003;" horiz-adv-x="1690" />
<glyph unicode="&#x2004;" horiz-adv-x="563" />
<glyph unicode="&#x2005;" horiz-adv-x="422" />
<glyph unicode="&#x2006;" horiz-adv-x="281" />
<glyph unicode="&#x2007;" horiz-adv-x="281" />
<glyph unicode="&#x2008;" horiz-adv-x="211" />
<glyph unicode="&#x2009;" horiz-adv-x="338" />
<glyph unicode="&#x200a;" horiz-adv-x="93" />
<glyph unicode="&#x2010;" horiz-adv-x="819" d="M16 524v283h775v-283h-775z" />
<glyph unicode="&#x2011;" horiz-adv-x="819" d="M16 524v283h775v-283h-775z" />
<glyph unicode="&#x2012;" horiz-adv-x="819" d="M16 524v283h775v-283h-775z" />
<glyph unicode="&#x2013;" horiz-adv-x="1024" d="M41 367v311h946v-311h-946z" />
<glyph unicode="&#x2014;" horiz-adv-x="2048" d="M0 367v311h2048v-311h-2048z" />
<glyph unicode="&#x2018;" horiz-adv-x="499" d="M88 846v317q0 102 27 158.5t98 84t201 26.5v-142q-81 -1 -109.5 -28.5t-28.5 -98.5h117v-317h-305z" />
<glyph unicode="&#x2019;" horiz-adv-x="499" d="M88 834v141q79 1 107 28.5t28 98.5h-117v319h308v-319q0 -101 -27.5 -157.5t-98.5 -84t-200 -26.5z" />
<glyph unicode="&#x201a;" horiz-adv-x="499" d="M84 -127q79 1 107 28.5t28 98.5h-117v317h308v-317q0 -101 -27.5 -157.5t-98.5 -84t-200 -26.5v141z" />
<glyph unicode="&#x201c;" horiz-adv-x="925" d="M88 846v317q0 102 27 158.5t98 84t201 26.5v-142q-81 -1 -109.5 -28.5t-28.5 -98.5h117v-317h-305zM514 846v317q0 102 27 158.5t98 84t201 26.5v-142q-81 -1 -109.5 -28.5t-28.5 -98.5h119v-317h-307z" />
<glyph unicode="&#x201d;" horiz-adv-x="925" d="M88 834v141q79 1 107 28.5t28 98.5h-117v319h308v-319q0 -101 -27.5 -157.5t-98.5 -84t-200 -26.5zM514 834v141q79 1 107 28.5t28 98.5h-117v319h308v-319q0 -101 -27.5 -157.5t-98.5 -84t-200 -26.5z" />
<glyph unicode="&#x201e;" horiz-adv-x="925" d="M84 -127q79 1 107 28.5t28 98.5h-117v317h308v-317q0 -101 -27.5 -157.5t-98.5 -84t-200 -26.5v141zM510 -127q80 1 107.5 28t27.5 99h-117v317h308v-317q0 -102 -27.5 -158t-98 -83.5t-200.5 -26.5v141z" />
<glyph unicode="&#x2022;" horiz-adv-x="956" d="M145 567q0 141 99.5 240.5t240.5 99.5t240.5 -99.5t99.5 -240.5t-99.5 -240.5t-240.5 -99.5t-240.5 99.5t-99.5 240.5z" />
<glyph unicode="&#x2026;" horiz-adv-x="1894" d="M162 0v330h305v-330h-305zM795 0v330h305v-330h-305zM1427 0v330h306v-330h-306z" />
<glyph unicode="&#x202f;" horiz-adv-x="338" />
<glyph unicode="&#x2039;" horiz-adv-x="628" d="M88 516l242 459l213 -115l-181 -344l181 -321l-203 -125z" />
<glyph unicode="&#x203a;" horiz-adv-x="628" d="M74 186l182 344l-182 320l202 125l254 -445l-241 -460z" />
<glyph unicode="&#x205f;" horiz-adv-x="422" />
<glyph unicode="&#x2122;" horiz-adv-x="2048" d="M35 1257v164h788v-164h-788zM330 711v546l190 -51v-495h-190zM877 711v710h210q32 0 58.5 -17.5t41 -37.5t34.5 -57l217 -410l225 410q30 55 62.5 83.5t80.5 28.5h193v-710h-191v522l-284 -522h-174l-283 522v-522h-190z" />
<glyph unicode="&#x25fc;" horiz-adv-x="993" d="M0 0v993h993v-993h-993z" />
</font>
</defs>
</svg>
